<svg width="1070" height="1761" viewBox="0 0 1070 1761" fill="none" xmlns="http://www.w3.org/2000/svg">
<path d="M139.5 1410V345H493.5C606.5 345 700 369 774 417C849 464 905 528 942 609C980 689 999 778 999 876C999 984 978.5 1078 937.5 1158C896.5 1238 838 1300 762 1344C686 1388 596.5 1410 493.5 1410H139.5ZM922.5 876C922.5 787 905.5 707.5 871.5 637.5C838.5 567.5 790 513 726 474C663 434 585.5 414 493.5 414H216V1341H493.5C586.5 1341 665 1320.5 729 1279.5C793 1238.5 841 1183 873 1113C906 1042 922.5 963 922.5 876Z" fill="white"/>
<path d="M216 345H400V414H216V345Z" fill="black"/>
<path d="M493 1269H677V1410H493V1269Z" fill="black"/>
</svg>
